<?xml version="1.0" standalone="no"?>
<!DOCTYPE svg PUBLIC "-//W3C//DTD SVG 20010904//EN"
 "http://www.w3.org/TR/2001/REC-SVG-20010904/DTD/svg10.dtd">
<svg version="1.0" xmlns="http://www.w3.org/2000/svg"
 width="768.000000pt" height="768.000000pt" viewBox="0 0 768.000000 768.000000"
 preserveAspectRatio="xMidYMid meet">
<metadata>
Created by potrace 1.14, written by Peter Selinger 2001-2017
</metadata>
<g transform="translate(0.000000,768.000000) scale(0.100000,-0.100000)"
fill="#000000" stroke="none">
<path d="M140 6956 l0 -724 101 0 c55 -1 103 -2 105 -4 2 -3 5 -1109 7 -2459
1 -1350 6 -2470 11 -2489 15 -68 38 -154 53 -199 22 -68 109 -243 133 -269 11
-12 18 -22 15 -22 -11 0 81 -113 142 -175 65 -66 91 -88 143 -125 19 -13 37
-27 40 -31 8 -11 90 -57 165 -93 98 -47 231 -91 305 -102 14 -2 50 -7 80 -12
30 -4 90 -8 132 -7 43 0 78 -4 78 -8 0 -5 5 -5 11 -1 9 5 408 9 500 5 14 -1
16 -16 15 -106 -1 -58 1 -106 4 -107 3 -1 371 -2 818 -3 l812 -2 0 109 0 108
33 1 c17 0 131 0 252 0 121 -1 225 -1 230 -2 6 0 56 1 113 2 92 2 106 0 130
-19 15 -12 38 -27 52 -33 13 -6 27 -14 30 -18 14 -22 199 -108 270 -127 62
-16 140 -31 140 -27 0 3 6 1 13 -4 6 -5 77 -8 157 -7 163 3 169 3 225 15 22 4
52 10 67 13 15 2 32 7 38 11 5 3 18 8 28 10 10 2 35 10 55 19 21 8 41 16 45
16 9 2 134 72 147 82 59 49 102 71 136 72 22 1 39 -2 39 -7 0 -4 5 -5 10 -2 6
4 106 8 223 10 117 2 223 6 237 9 13 3 42 8 64 12 22 3 44 8 49 11 4 3 18 6
30 8 27 5 46 10 72 19 107 41 149 59 186 81 24 14 52 28 62 32 9 3 17 9 17 14
0 5 7 9 15 9 8 0 23 8 33 17 10 10 36 31 59 46 74 51 228 217 286 310 34 54
94 173 107 212 7 22 17 46 23 52 5 7 6 13 2 13 -4 0 -3 6 3 12 8 11 16 40 38
143 1 6 6 28 10 50 11 51 12 5023 1 5090 -25 153 -123 408 -183 476 -8 8 -14
19 -14 23 0 11 -101 135 -147 181 -74 73 -185 165 -199 165 -4 0 -21 10 -38
23 -17 13 -56 35 -86 49 -98 46 -170 77 -170 73 0 -2 -16 3 -35 11 -19 8 -35
12 -35 9 0 -2 -11 0 -24 5 -13 5 -41 11 -63 15 -21 3 -50 8 -63 11 -21 4 -210
16 -245 15 -5 0 -54 -1 -107 -3 -54 -2 -98 0 -98 4 0 4 -12 3 -27 0 -35 -9
-161 -7 -171 2 -4 4 -7 59 -7 122 l1 114 -2843 0 -2843 0 0 -724z"/>
</g>
</svg>
