<svg width="1440" height="1024" fill="none" version="1.1" viewBox="0 0 1440 1024" xmlns="http://www.w3.org/2000/svg">
 <g clip-path="url(#clip0_5_39)" opacity=".2">
  <path d="m67.564 698.52s94.002 31.025 125.7-74.839c31.694-105.86-58.823-112.56 89.81-47.238 148.63 65.318 19.016 168.75-40.082 178.48-59.098 9.73-79.791 84.637 125.18 76.266 204.97-8.37 117.78 283.75 117.78 283.75s-70.754 156.54-222.08 39.98 45.209-63.96 23.934-135.47c-21.276-71.507-141.39 16.78-207.37-89.039-65.982-105.82-12.861-231.89-12.861-231.89z" fill="#db00ff"/>
  <path d="m165.03 760.03s43.72-88.812-56.746-134.84c-100.47-46.022-119.61 42.701-34.372-95.477 85.236-138.18 169.76 4.492 171.23 64.368 1.468 59.875 72.795 90.723 92.837-113.44 20.042-204.16 297.3-77.43 297.3-77.43s145.26 91.712 8.9 225.48c-136.36 133.76-57.092-53.616-130.86-42.429-73.766 11.187-2.932 142.35-116.85 193.08-113.92 50.723-231.44-19.314-231.44-19.314z" fill="#db00ff"/>
  <path d="m98.644 346.83s135.17 51.558 165.12-77.047c29.955-128.6-97.088-149.16 118.82-47.228 215.9 101.93 49.157 214.34-31.896 218.62-81.052 4.276-99.832 95.507 184.69 112.52 284.52 17.015 202.23 371.92 202.23 371.92s-77.586 186.96-304.12 20.36c-226.54-166.6 54.417-74.196 15.166-166.8-39.25-92.604-194.79 2.067-300.95-139.59-106.16-141.66-49.057-292.75-49.057-292.75z" fill="#ff4577"/>
  <path d="m-134.56 343.02s80.481 46.978 116.09-34.014c35.61-80.993-43.577-106.93 82.492-19.115 126.07 87.819 49.803 147.67 49.803 147.67s-122.35 42.1 58.674 81.255c181.03 39.154 30.868 264.98 30.868 264.98l-245.93-34.488s91.992-25.269 78.475-89.584c-13.517-64.315-100.71-52.032-151.08-154.96-50.37-102.93-19.394-161.75-19.394-161.75z" fill="#000aff"/>
  <path d="m682.75 1116.7s50.56-78.28-28.744-117.51c-79.304-39.226-108.79 38.707-15.375-83.271 93.415-121.98 149.77-43.093 149.77-43.093s36.539 124.13 83.818-54.95c47.278-179.08 266.1-18.886 266.1-18.886l-45.54 244.13s-21.1-93.04-85.96-82.437c-64.855 10.603-56.516 98.257-161.61 143.94s-162.46 12.08-162.46 12.08z" fill="#000aff"/>
  <path d="m276.93 577.44c67.174 8.581-23.66 95.745 77.539 113.98 101.2 18.233 102.22-71.163 49.552 82.19-52.673 153.35-122.03 53.647-122.03 53.647s-143.63-91.832-123.87 107.76c19.759 199.6-247.72 102.19-247.72 102.19l-47.365-266.72s59.594 90.718 125.48 61.26c65.881-29.459 22.196-118.21 117.68-195.56 95.481-77.356 103.57-67.317 170.74-58.736z" fill="#00a3ff"/>
  <path d="m912.91 909.42c-25.163 62.872-86.744-46.929-129.79 46.456-43.045 93.387 43.234 116.81-91.995 27.341-135.23-89.47-21.307-131.59-21.307-131.59s124.94-115.99-73.226-146.95c-198.16-30.958-36.75-265.43-36.75-265.43l270.07 21.082s-102.77 34.922-90.787 106.09c11.984 71.165 108.86 51.149 159.78 162.99 50.92 111.84 39.173 117.15 14.01 180.02z" fill="#00a3ff"/>
 </g>
 <defs>
  <clipPath id="clip0_5_39">
   <rect width="1440" height="1024" fill="#fff"/>
  </clipPath>
 </defs>
</svg>
