<svg
      xmlns="http://www.w3.org/2000/svg"
      width="1440"
      height="1024"
      fill="none"
      version="1.1"
      viewBox="0 0 1440 1024"
    >
      <g clipPath="url(#clip0_5_39)">
        <path
          fill="#db00ff"
          d="M67.564 698.524s94.002 31.025 125.696-74.839c31.694-105.863-58.823-112.557 89.81-47.238 148.633 65.318 19.016 168.752-40.082 178.481-59.098 9.73-79.791 84.637 125.18 76.266 204.971-8.37 117.78 283.746 117.78 283.746s-70.754 156.54-222.082 39.98c-151.328-116.56 45.209-63.96 23.934-135.47-21.276-71.507-141.392 16.78-207.375-89.039-65.982-105.815-12.861-231.887-12.861-231.887z"
        ></path>
        <path
          fill="#db00ff"
          d="M165.026 760.034s43.72-88.812-56.746-134.835C7.813 579.177-11.328 667.9 73.908 529.722s169.761 4.492 171.228 64.368c1.468 59.875 72.795 90.723 92.837-113.437 20.042-204.161 297.301-77.43 297.301-77.43s145.258 91.712 8.9 225.477c-136.357 133.764-57.092-53.616-130.857-42.429-73.766 11.187-2.932 142.353-116.852 193.077-113.919 50.723-231.439-19.314-231.439-19.314z"
        ></path>
        <path
          fill="#ff4577"
          d="M98.644 346.833s135.166 51.558 165.122-77.047c29.955-128.605-97.088-149.159 118.816-47.228 215.903 101.932 49.157 214.34-31.896 218.617-81.052 4.276-99.832 95.507 184.69 112.522 284.521 17.015 202.233 371.918 202.233 371.918s-77.586 186.965-304.124 20.36c-226.539-166.602 54.417-74.196 15.166-166.8-39.25-92.604-194.791 2.067-300.95-139.591C41.542 497.925 98.644 346.833 98.644 346.833z"
        ></path>
        <path
          fill="#000aff"
          d="M-134.565 343.019s80.48 46.978 116.09-34.014c35.61-80.993-43.576-106.933 82.493-19.115 126.069 87.819 49.803 147.672 49.803 147.672s-122.352 42.1 58.674 81.255C353.521 557.971 203.363 783.8 203.363 783.8l-245.93-34.488s91.992-25.269 78.475-89.584c-13.518-64.315-100.71-52.032-151.079-154.963-50.37-102.931-19.394-161.746-19.394-161.746z"
        ></path>
        <path
          fill="#000aff"
          d="M682.75 1116.72s50.56-78.28-28.744-117.507c-79.304-39.226-108.789 38.707-15.375-83.271 93.415-121.98 149.768-43.093 149.768-43.093s36.539 124.127 83.818-54.95c47.278-179.076 266.103-18.886 266.103-18.886l-45.54 244.127s-21.1-93.04-85.96-82.437c-64.855 10.603-56.516 98.257-161.614 143.937-105.098 45.68-162.456 12.08-162.456 12.08z"
        ></path>
        <path
          fill="#00a3ff"
          d="M276.93 577.439c67.174 8.581-23.66 95.745 77.539 113.979 101.199 18.233 102.225-71.163 49.552 82.19-52.673 153.354-122.032 53.647-122.032 53.647s-143.631-91.832-123.871 107.759C177.877 1134.61-89.599 1037.2-89.599 1037.2l-47.365-266.72s59.594 90.718 125.475 61.26c65.882-29.459 22.197-118.21 117.677-195.565 95.481-77.356 103.568-67.317 170.742-58.736z"
        ></path>
        <path
          fill="#00a3ff"
          d="M912.912 909.417c-25.163 62.872-86.744-46.929-129.79 46.456-43.045 93.387 43.234 116.807-91.995 27.341-135.228-89.47-21.307-131.589-21.307-131.589s124.937-115.991-73.226-146.95c-198.163-30.958-36.75-265.432-36.75-265.432l270.068 21.082s-102.77 34.922-90.787 106.088c11.984 71.165 108.857 51.149 159.777 162.987 50.92 111.837 39.173 117.146 14.01 180.017z"
        ></path>
      </g>
      <defs id="defs41">
        <clipPath id="clip0_5_39">
          <path id="rect38" fill="#fff" d="M0 0H1440V1024H0z"></path>
        </clipPath>
      </defs>
    </svg>